<mxfile host="app.diagrams.net" modified="2024-03-14T23:36:16.007Z" agent="Mozilla/5.0 (Macintosh; Intel Mac OS X 10_15_7) AppleWebKit/537.36 (KHTML, like Gecko) Chrome/122.0.0.0 Safari/537.36" etag="m3g-wi_pmKFvox2plKvb" version="23.0.2" type="device">
  <diagram name="Page-1" id="gTAX0GsgCt1l3-kl96Sy">
    <mxGraphModel dx="954" dy="640" grid="1" gridSize="10" guides="1" tooltips="1" connect="1" arrows="1" fold="1" page="1" pageScale="1" pageWidth="850" pageHeight="1100" background="#FFFFFF" math="0" shadow="0">
      <root>
        <mxCell id="0" />
        <mxCell id="1" parent="0" />
        <mxCell id="3vtoSYMsIMjRjQUCLPnX-2" value="ALWAYS" style="edgeStyle=orthogonalEdgeStyle;rounded=0;orthogonalLoop=1;jettySize=auto;html=1;curved=1;" edge="1" parent="1" source="3vtoSYMsIMjRjQUCLPnX-1">
          <mxGeometry relative="1" as="geometry">
            <mxPoint x="370" y="240" as="targetPoint" />
          </mxGeometry>
        </mxCell>
        <mxCell id="3vtoSYMsIMjRjQUCLPnX-1" value="&lt;u&gt;S0&lt;/u&gt;&lt;br&gt;INIT" style="ellipse;whiteSpace=wrap;html=1;" vertex="1" parent="1">
          <mxGeometry x="130" y="120" width="120" height="80" as="geometry" />
        </mxCell>
        <mxCell id="3vtoSYMsIMjRjQUCLPnX-8" value="homeswitch == 1" style="edgeStyle=orthogonalEdgeStyle;rounded=0;orthogonalLoop=1;jettySize=auto;html=1;curved=1;entryX=0.5;entryY=0;entryDx=0;entryDy=0;entryPerimeter=0;" edge="1" parent="1" source="3vtoSYMsIMjRjQUCLPnX-3" target="3vtoSYMsIMjRjQUCLPnX-9">
          <mxGeometry relative="1" as="geometry">
            <mxPoint x="620" y="350" as="targetPoint" />
          </mxGeometry>
        </mxCell>
        <mxCell id="3vtoSYMsIMjRjQUCLPnX-3" value="&lt;u&gt;S6&lt;/u&gt;&lt;br&gt;HOMING" style="ellipse;whiteSpace=wrap;html=1;" vertex="1" parent="1">
          <mxGeometry x="310" y="240" width="120" height="80" as="geometry" />
        </mxCell>
        <mxCell id="3vtoSYMsIMjRjQUCLPnX-7" value="homeswitch == 0" style="curved=1;endArrow=classic;html=1;rounded=0;exitX=0.342;exitY=-0.012;exitDx=0;exitDy=0;exitPerimeter=0;entryX=0.075;entryY=0.238;entryDx=0;entryDy=0;entryPerimeter=0;" edge="1" parent="1" source="3vtoSYMsIMjRjQUCLPnX-3" target="3vtoSYMsIMjRjQUCLPnX-3">
          <mxGeometry x="-0.1977" width="50" height="50" relative="1" as="geometry">
            <mxPoint x="400" y="360" as="sourcePoint" />
            <mxPoint x="300" y="380" as="targetPoint" />
            <Array as="points">
              <mxPoint x="320" y="220" />
              <mxPoint x="250" y="220" />
              <mxPoint x="250" y="260" />
            </Array>
            <mxPoint as="offset" />
          </mxGeometry>
        </mxCell>
        <mxCell id="3vtoSYMsIMjRjQUCLPnX-9" value="&lt;u&gt;S1&lt;/u&gt;&lt;br&gt;WAIT FOR BUTTON" style="ellipse;whiteSpace=wrap;html=1;" vertex="1" parent="1">
          <mxGeometry x="530" y="310" width="120" height="80" as="geometry" />
        </mxCell>
        <mxCell id="3vtoSYMsIMjRjQUCLPnX-10" value="triggerswitch == 0" style="curved=1;endArrow=classic;html=1;rounded=0;entryX=0.942;entryY=0.713;entryDx=0;entryDy=0;entryPerimeter=0;exitX=0.942;exitY=0.238;exitDx=0;exitDy=0;exitPerimeter=0;" edge="1" parent="1" source="3vtoSYMsIMjRjQUCLPnX-9" target="3vtoSYMsIMjRjQUCLPnX-9">
          <mxGeometry x="0.0248" y="10" width="50" height="50" relative="1" as="geometry">
            <mxPoint x="660" y="360" as="sourcePoint" />
            <mxPoint x="710" y="310" as="targetPoint" />
            <Array as="points">
              <mxPoint x="700" y="329" />
              <mxPoint x="730" y="360" />
              <mxPoint x="720" y="370" />
              <mxPoint x="690" y="380" />
            </Array>
            <mxPoint x="3" y="-7" as="offset" />
          </mxGeometry>
        </mxCell>
        <mxCell id="3vtoSYMsIMjRjQUCLPnX-16" value="count &amp;gt;= 550 /&lt;br&gt;camflg.put(1)" style="edgeStyle=orthogonalEdgeStyle;rounded=0;orthogonalLoop=1;jettySize=auto;html=1;entryX=1;entryY=0.5;entryDx=0;entryDy=0;curved=1;exitX=0.5;exitY=1;exitDx=0;exitDy=0;" edge="1" parent="1" source="3vtoSYMsIMjRjQUCLPnX-11" target="3vtoSYMsIMjRjQUCLPnX-15">
          <mxGeometry x="-0.1667" y="10" relative="1" as="geometry">
            <mxPoint as="offset" />
          </mxGeometry>
        </mxCell>
        <mxCell id="3vtoSYMsIMjRjQUCLPnX-11" value="&lt;u&gt;S2&lt;/u&gt;&lt;br&gt;WAIT 5 SECONDS" style="ellipse;whiteSpace=wrap;html=1;" vertex="1" parent="1">
          <mxGeometry x="530" y="470" width="120" height="80" as="geometry" />
        </mxCell>
        <mxCell id="3vtoSYMsIMjRjQUCLPnX-13" value="triggerswitch == 1&amp;nbsp;" style="endArrow=classic;html=1;rounded=0;entryX=0.5;entryY=0;entryDx=0;entryDy=0;exitX=0.5;exitY=1;exitDx=0;exitDy=0;" edge="1" parent="1" source="3vtoSYMsIMjRjQUCLPnX-9" target="3vtoSYMsIMjRjQUCLPnX-11">
          <mxGeometry width="50" height="50" relative="1" as="geometry">
            <mxPoint x="400" y="380" as="sourcePoint" />
            <mxPoint x="450" y="330" as="targetPoint" />
            <mxPoint as="offset" />
          </mxGeometry>
        </mxCell>
        <mxCell id="3vtoSYMsIMjRjQUCLPnX-14" value="count&amp;lt;550" style="curved=1;endArrow=classic;html=1;rounded=0;entryX=0.983;entryY=0.7;entryDx=0;entryDy=0;entryPerimeter=0;exitX=0.925;exitY=0.175;exitDx=0;exitDy=0;exitPerimeter=0;" edge="1" parent="1" source="3vtoSYMsIMjRjQUCLPnX-11" target="3vtoSYMsIMjRjQUCLPnX-11">
          <mxGeometry width="50" height="50" relative="1" as="geometry">
            <mxPoint x="670" y="470" as="sourcePoint" />
            <mxPoint x="810" y="420" as="targetPoint" />
            <Array as="points">
              <mxPoint x="720" y="470" />
              <mxPoint x="760" y="480" />
              <mxPoint x="750" y="520" />
            </Array>
          </mxGeometry>
        </mxCell>
        <mxCell id="3vtoSYMsIMjRjQUCLPnX-15" value="&lt;u&gt;S3&lt;br&gt;&lt;/u&gt;WAIT FOR CAMERA AND SETUP CONTROLLER" style="ellipse;whiteSpace=wrap;html=1;" vertex="1" parent="1">
          <mxGeometry x="320" y="560" width="120" height="80" as="geometry" />
        </mxCell>
        <mxCell id="3vtoSYMsIMjRjQUCLPnX-20" value="steady state achieved /&amp;nbsp;&lt;br&gt;doShoot.put(1)" style="edgeStyle=orthogonalEdgeStyle;rounded=0;orthogonalLoop=1;jettySize=auto;html=1;entryX=0.5;entryY=1;entryDx=0;entryDy=0;" edge="1" parent="1" source="3vtoSYMsIMjRjQUCLPnX-17" target="3vtoSYMsIMjRjQUCLPnX-19">
          <mxGeometry relative="1" as="geometry">
            <mxPoint as="offset" />
          </mxGeometry>
        </mxCell>
        <mxCell id="3vtoSYMsIMjRjQUCLPnX-17" value="&lt;u&gt;S4&lt;/u&gt;&lt;br&gt;LOOK AT TARGET" style="ellipse;whiteSpace=wrap;html=1;" vertex="1" parent="1">
          <mxGeometry x="90" y="470" width="120" height="80" as="geometry" />
        </mxCell>
        <mxCell id="3vtoSYMsIMjRjQUCLPnX-18" value="camflg.get() == 0" style="edgeStyle=orthogonalEdgeStyle;rounded=0;orthogonalLoop=1;jettySize=auto;html=1;curved=1;entryX=0.5;entryY=1;entryDx=0;entryDy=0;" edge="1" parent="1" source="3vtoSYMsIMjRjQUCLPnX-15" target="3vtoSYMsIMjRjQUCLPnX-17">
          <mxGeometry relative="1" as="geometry">
            <mxPoint x="246" y="542" as="targetPoint" />
          </mxGeometry>
        </mxCell>
        <mxCell id="3vtoSYMsIMjRjQUCLPnX-19" value="&lt;u&gt;S5&lt;/u&gt;&lt;br&gt;TURN AROUND" style="ellipse;whiteSpace=wrap;html=1;" vertex="1" parent="1">
          <mxGeometry x="90" y="310" width="120" height="80" as="geometry" />
        </mxCell>
        <mxCell id="3vtoSYMsIMjRjQUCLPnX-21" style="edgeStyle=orthogonalEdgeStyle;rounded=0;orthogonalLoop=1;jettySize=auto;html=1;entryX=0;entryY=0.5;entryDx=0;entryDy=0;exitX=0.5;exitY=0;exitDx=0;exitDy=0;strokeColor=none;" edge="1" parent="1" source="3vtoSYMsIMjRjQUCLPnX-19" target="3vtoSYMsIMjRjQUCLPnX-3">
          <mxGeometry relative="1" as="geometry" />
        </mxCell>
        <mxCell id="3vtoSYMsIMjRjQUCLPnX-23" value="steady state achieved" style="edgeStyle=orthogonalEdgeStyle;rounded=0;orthogonalLoop=1;jettySize=auto;html=1;entryX=0;entryY=0.5;entryDx=0;entryDy=0;exitX=0.5;exitY=0;exitDx=0;exitDy=0;curved=1;" edge="1" parent="1" source="3vtoSYMsIMjRjQUCLPnX-19" target="3vtoSYMsIMjRjQUCLPnX-3">
          <mxGeometry relative="1" as="geometry" />
        </mxCell>
        <mxCell id="3vtoSYMsIMjRjQUCLPnX-25" value="camflg.get() == 1" style="curved=1;endArrow=classic;html=1;rounded=0;entryX=1;entryY=1;entryDx=0;entryDy=0;exitX=0.433;exitY=0.975;exitDx=0;exitDy=0;exitPerimeter=0;" edge="1" parent="1" source="3vtoSYMsIMjRjQUCLPnX-15" target="3vtoSYMsIMjRjQUCLPnX-15">
          <mxGeometry x="-0.1224" y="7" width="50" height="50" relative="1" as="geometry">
            <mxPoint x="430" y="690" as="sourcePoint" />
            <mxPoint x="480" y="640" as="targetPoint" />
            <Array as="points">
              <mxPoint x="380" y="690" />
              <mxPoint x="440" y="680" />
              <mxPoint x="430" y="640" />
            </Array>
            <mxPoint as="offset" />
          </mxGeometry>
        </mxCell>
      </root>
    </mxGraphModel>
  </diagram>
</mxfile>
